<svg id="Layer_1" data-name="Layer 1" xmlns="http://www.w3.org/2000/svg" viewBox="0 0 75.09 82.29">
  <title>laundry</title>
  <g>
    <rect x="0.5" y="0.5" width="66.43" height="81.29" rx="12" ry="12" fill="#fff" stroke="#231f20" stroke-miterlimit="10"/>
    <g>
      <line x1="4.89" y1="21.54" x2="62.76" y2="21.54" fill="none" stroke="#231f20" stroke-miterlimit="10"/>
      <path d="M-40.09-39.13" transform="translate(-12.94 -9.19)" fill="none" stroke="#231f20" stroke-miterlimit="10"/>
      <path d="M87.79,38.94a.25.25,0,0,0,0-.5.25.25,0,0,0,0,.5Z" transform="translate(-12.94 -9.19)" fill="#231f20"/>
      <rect x="36.39" y="12.04" width="6.64" height="4.81" rx="2.41" ry="2.41" fill="none" stroke="#231f20" stroke-miterlimit="10" stroke-width="0.75"/>
      <rect x="47.22" y="12.04" width="6.64" height="4.81" rx="2.41" ry="2.41" fill="none" stroke="#231f20" stroke-miterlimit="10" stroke-width="0.75"/>
      <rect x="12.56" y="12.04" width="16.64" height="4.81" fill="none" stroke="#231f20" stroke-miterlimit="10" stroke-width="0.75"/>
      <g>
        <circle cx="34.06" cy="46.03" r="19.8" fill="none" stroke="#231f20" stroke-miterlimit="10" stroke-width="1.2"/>
        <path d="M27.38,59C31.69,55.65,36.28,53,42,54.08c3.63.71,6.7,2.78,10.11,4.06,5.57,2.09,10.74.43,14.92-3.65.23-.22-.12-.58-.35-.35-5.19,5.06-10.77,5.21-17.16,2.26-2.82-1.3-5.58-2.67-8.72-3-5.34-.59-9.66,2.11-13.72,5.29-.26.2.1.55.35.35Z" transform="translate(-12.94 -9.19)" fill="#231f20"/>
        <rect x="53.86" y="44.91" width="2.25" height="2.25" fill="#231f20"/>
      </g>
    </g>
  </g>
</svg>
