<svg id="Layer_1" data-name="Layer 1" xmlns="http://www.w3.org/2000/svg" viewBox="0 0 95.27 55.66">
  <title>location</title>
  <g>
    <g>
      <g>
        <line x1="23.76" y1="12.66" x2="71.41" y2="12.66" fill="none" stroke="#231f20" stroke-miterlimit="10"/>
        <line x1="0.44" y1="55.42" x2="24.26" y2="12.73" fill="none" stroke="#231f20" stroke-miterlimit="10"/>
        <line x1="0.78" y1="54.81" x2="94.39" y2="54.81" fill="none" stroke="#231f20" stroke-miterlimit="10"/>
        <line x1="94.83" y1="55.42" x2="71" y2="12.73" fill="none" stroke="#231f20" stroke-miterlimit="10"/>
      </g>
      <line x1="19.88" y1="21.54" x2="85.07" y2="37.76" fill="none" stroke="#231f20" stroke-miterlimit="10"/>
      <line x1="15.1" y1="29.36" x2="90.8" y2="48.19" fill="none" stroke="#231f20" stroke-miterlimit="10"/>
      <line x1="75.64" y1="22.16" x2="9.78" y2="38.54" fill="none" stroke="#231f20" stroke-miterlimit="10"/>
      <line x1="80.18" y1="29.37" x2="4.62" y2="48.17" fill="none" stroke="#231f20" stroke-miterlimit="10"/>
      <polygon points="14.55 45.06 13.01 38.41 74.6 23.09 76.14 29.73 14.55 45.06" fill="#fff"/>
      <polygon points="21.74 30.28 23.41 23.09 83.55 38.05 81.88 45.24 21.74 30.28" fill="#fff"/>
    </g>
    <g>
      <ellipse cx="47.58" cy="29.92" rx="13.78" ry="5.86" fill="none" stroke="#000" stroke-width="0.5"/>
      <path d="M53,22a12.34,12.34,0,0,1,2.35,5.5,14.6,14.6,0,0,1,.22,2.59,12.71,12.71,0,0,1-.47,3.11,43.14,43.14,0,0,1-2.27,6.21c-.94,2.12-2,4.2-2.9,5.93-.68,1.29-1.29,2.39-1.73,3.16s-.71,1.22-.71,1.22l-.06-.11c-.13-.21-.43-.73-.85-1.47s-1-1.7-1.53-2.8c-.92-1.73-2-3.81-2.9-5.93a43.14,43.14,0,0,1-2.27-6.21,12.71,12.71,0,0,1-.47-3.11,14.6,14.6,0,0,1,.22-2.59A12.34,12.34,0,0,1,42,22a8.3,8.3,0,0,1,2.48-2.17,6.13,6.13,0,0,1,6,0A8.42,8.42,0,0,1,53,22Z" transform="translate(0.07 -18.8)" fill="#fff" stroke="#000" stroke-width="0.5"/>
      <ellipse cx="47.58" cy="13.87" rx="1.58" ry="1.73" fill="none" stroke="#000" stroke-width="0.5"/>
    </g>
  </g>
</svg>
