<svg id="paws" xmlns="http://www.w3.org/2000/svg" viewBox="0 0 70.67 86.67">
  <title>pets</title>
  <g>
    <circle cx="51.71" cy="67.71" r="18.46" fill="#fff" stroke="#231f20" stroke-miterlimit="10"/>
    <g id="Forma_1" data-name="Forma 1">
      <path d="M45.76,39.37c-9.86-5.94-27.14,1.79-32,9.82-2.4,4,.28,9.85,6.11,13.36a16.76,16.76,0,0,0,5.5,2.07,12.59,12.59,0,0,1,4.23,1.55,12.64,12.64,0,0,1,3.36,3,16.73,16.73,0,0,0,4.41,3.9c5.82,3.5,12.26,3.13,14.66-.86C56.89,64.19,55.63,45.31,45.76,39.37ZM37.37,31c4.6,2.77,11.53-.59,15.77-7.64s4-14.75-.63-17.52S41,6.47,36.74,13.53,32.77,28.28,37.37,31Zm35.45,4.2c4.25-7,4-14.75-.63-17.51s-11.52.59-15.77,7.64-4,14.75.63,17.52S68.58,42.3,72.82,35.24ZM23.66,37.05c3.72.05,7.11-3.82,7.2-9.45S27.79,18,24,17.9s-7,3.87-7.19,9.45S20,37,23.66,37.05ZM63.15,47c-4.94,2.71-6.77,7.52-5,10.78s6.91,4.3,11.77,1.51,6.84-7.45,5-10.79S68.12,44.3,63.15,47Z" transform="translate(-12.91 -4.91)" fill="#010101" fill-rule="evenodd"/>
    </g>
    <g>
      <line x1="41.79" y1="66.73" x2="47.95" y2="74.56" fill="none" stroke="#231f20" stroke-miterlimit="10"/>
      <line x1="48.04" y1="74.44" x2="61.63" y2="60.85" fill="none" stroke="#231f20" stroke-miterlimit="10"/>
    </g>
  </g>
</svg>
