<svg id="apartmenthunting" xmlns="http://www.w3.org/2000/svg" viewBox="0 0 69.74 71.59">
  <title>Searching</title>
  <g>
    <path d="M37.26,52.74c-4.91-.37-8.63-4.25-8.3-8.65L28,44c-.37,4.95,3.76,9.31,9.22,9.72Z" />
    <path d="M69.74,66.17,57.32,56.86V24.58H29.16V7.23H23.43V0H5.73V7.23H0V71.59H57.32V60.22l10.81,8.1ZM56.32,25.58V56.11l-6-4.5a15.88,15.88,0,0,0,.67-17V29.85H46.72a15.86,15.86,0,0,0-17.56-1V25.58Zm-34,15.9A14.91,14.91,0,0,1,37.2,27.69c.38,0,.76,0,1.15,0a14.91,14.91,0,1,1-16,13.75ZM6.73,1h15.7V7.23H6.73ZM1,70.59V8.23H28.16V29.54a15.93,15.93,0,0,0-5.78,7.35h-4.6v5h3.56a15.92,15.92,0,0,0,6.82,13.71V70.59Zm55.32,0H29.16V56.29A15.78,15.78,0,0,0,36,58.46c.41,0,.82,0,1.23,0a15.8,15.8,0,0,0,10.34-3.84c.36-.31.69-.64,1-1l7.71,5.77Z" />
    <rect x="6.33" y="22.55" width="5.05" height="5.05" />
    <rect x="17.78" y="22.55" width="5.05" height="5.05" />
    <rect x="6.33" y="36.89" width="5.05" height="5.05" />
    <rect x="6.33" y="51.23" width="5.05" height="5.05" />
    <rect x="17.78" y="51.23" width="5.05" height="5.05" />
    <rect x="34.49" y="58.53" width="5.05" height="5.05" />
    <rect x="45.94" y="58.53" width="5.05" height="5.05" />
  </g>
</svg>
