<svg xmlns="http://www.w3.org/2000/svg">

    
      <!--<symbol id="earth" viewBox="0 0 285.93 250">
    <title>Earth symbol</title>
    <path d="M276.94,0H9A9,9,0,0,0,1.22,13.46l134,232.06a9,9,0,0,0,15.54,0l134-232.06A9,9,0,0,0,276.94,0ZM107.18,137h89.5l-44.75,77.51ZM210.5,113H93.37L42.29,24.56H261.58Z" />
  </symbol>-->

    <symbol id="searching" viewBox="0 0 69.74 71.59">
        <title>searching</title>
          <g>
            <path d="M37.26,52.74c-4.91-.37-8.63-4.25-8.3-8.65L28,44c-.37,4.95,3.76,9.31,9.22,9.72Z" />
            <path d="M69.74,66.17,57.32,56.86V24.58H29.16V7.23H23.43V0H5.73V7.23H0V71.59H57.32V60.22l10.81,8.1ZM56.32,25.58V56.11l-6-4.5a15.88,15.88,0,0,0,.67-17V29.85H46.72a15.86,15.86,0,0,0-17.56-1V25.58Zm-34,15.9A14.91,14.91,0,0,1,37.2,27.69c.38,0,.76,0,1.15,0a14.91,14.91,0,1,1-16,13.75ZM6.73,1h15.7V7.23H6.73ZM1,70.59V8.23H28.16V29.54a15.93,15.93,0,0,0-5.78,7.35h-4.6v5h3.56a15.92,15.92,0,0,0,6.82,13.71V70.59Zm55.32,0H29.16V56.29A15.78,15.78,0,0,0,36,58.46c.41,0,.82,0,1.23,0a15.8,15.8,0,0,0,10.34-3.84c.36-.31.69-.64,1-1l7.71,5.77Z" />
            <rect x="6.33" y="22.55" width="5.05" height="5.05" />
            <rect x="17.78" y="22.55" width="5.05" height="5.05" />
            <rect x="6.33" y="36.89" width="5.05" height="5.05" />
            <rect x="6.33" y="51.23" width="5.05" height="5.05" />
            <rect x="17.78" y="51.23" width="5.05" height="5.05" />
            <rect x="34.49" y="58.53" width="5.05" height="5.05" />
            <rect x="45.94" y="58.53" width="5.05" height="5.05" />
        </g>
    </symbol>          
          
    
    <symbol id="location" viewBox="0 0 95.27 55.66">
              <title>Symbol: Location</title>
              <g>
    <g>
      <g>
        <line x1="23.76" y1="12.66" x2="71.41" y2="12.66" fill="none" stroke="#231f20" stroke-miterlimit="10"/>
        <line x1="0.44" y1="55.42" x2="24.26" y2="12.73" fill="none" stroke="#231f20" stroke-miterlimit="10"/>
        <line x1="0.78" y1="54.81" x2="94.39" y2="54.81" fill="none" stroke="#231f20" stroke-miterlimit="10"/>
        <line x1="94.83" y1="55.42" x2="71" y2="12.73" fill="none" stroke="#231f20" stroke-miterlimit="10"/>
      </g>
      <line x1="19.88" y1="21.54" x2="85.07" y2="37.76" fill="none" stroke="#231f20" stroke-miterlimit="10"/>
      <line x1="15.1" y1="29.36" x2="90.8" y2="48.19" fill="none" stroke="#231f20" stroke-miterlimit="10"/>
      <line x1="75.64" y1="22.16" x2="9.78" y2="38.54" fill="none" stroke="#231f20" stroke-miterlimit="10"/>
      <line x1="80.18" y1="29.37" x2="4.62" y2="48.17" fill="none" stroke="#231f20" stroke-miterlimit="10"/>
      <polygon points="14.55 45.06 13.01 38.41 74.6 23.09 76.14 29.73 14.55 45.06" fill="#fff"/>
      <polygon points="21.74 30.28 23.41 23.09 83.55 38.05 81.88 45.24 21.74 30.28" fill="#fff"/>
    </g>
    <g>
      <ellipse cx="47.58" cy="29.92" rx="13.78" ry="5.86" fill="none" stroke="#000" stroke-width="0.5"/>
      <path d="M53,22a12.34,12.34,0,0,1,2.35,5.5,14.6,14.6,0,0,1,.22,2.59,12.71,12.71,0,0,1-.47,3.11,43.14,43.14,0,0,1-2.27,6.21c-.94,2.12-2,4.2-2.9,5.93-.68,1.29-1.29,2.39-1.73,3.16s-.71,1.22-.71,1.22l-.06-.11c-.13-.21-.43-.73-.85-1.47s-1-1.7-1.53-2.8c-.92-1.73-2-3.81-2.9-5.93a43.14,43.14,0,0,1-2.27-6.21,12.71,12.71,0,0,1-.47-3.11,14.6,14.6,0,0,1,.22-2.59A12.34,12.34,0,0,1,42,22a8.3,8.3,0,0,1,2.48-2.17,6.13,6.13,0,0,1,6,0A8.42,8.42,0,0,1,53,22Z" transform="translate(0.07 -18.8)" fill="#fff" stroke="#000" stroke-width="0.5"/>
      <ellipse cx="47.58" cy="13.87" rx="1.58" ry="1.73" fill="none" stroke="#000" stroke-width="0.5"/>
    </g>
  </g>
  
          </symbol>
          
          <symbol id="laundry" viewBox="0 0 75.09 82.29">
              <title>Symbol: Laundry</title>
                <g>
    <rect x="0.5" y="0.5" width="66.43" height="81.29" rx="12" ry="12" fill="#fff" stroke="#231f20" stroke-miterlimit="10"/>
    <g>
      <line x1="4.89" y1="21.54" x2="62.76" y2="21.54" fill="none" stroke="#231f20" stroke-miterlimit="10"/>
      <path d="M-40.09-39.13" transform="translate(-12.94 -9.19)" fill="none" stroke="#231f20" stroke-miterlimit="10"/>
      <path d="M87.79,38.94a.25.25,0,0,0,0-.5.25.25,0,0,0,0,.5Z" transform="translate(-12.94 -9.19)" fill="#231f20"/>
      <rect x="36.39" y="12.04" width="6.64" height="4.81" rx="2.41" ry="2.41" fill="none" stroke="#231f20" stroke-miterlimit="10" stroke-width="0.75"/>
      <rect x="47.22" y="12.04" width="6.64" height="4.81" rx="2.41" ry="2.41" fill="none" stroke="#231f20" stroke-miterlimit="10" stroke-width="0.75"/>
      <rect x="12.56" y="12.04" width="16.64" height="4.81" fill="none" stroke="#231f20" stroke-miterlimit="10" stroke-width="0.75"/>
      <g>
        <circle cx="34.06" cy="46.03" r="19.8" fill="none" stroke="#231f20" stroke-miterlimit="10" stroke-width="1.2"/>
        <path d="M27.38,59C31.69,55.65,36.28,53,42,54.08c3.63.71,6.7,2.78,10.11,4.06,5.57,2.09,10.74.43,14.92-3.65.23-.22-.12-.58-.35-.35-5.19,5.06-10.77,5.21-17.16,2.26-2.82-1.3-5.58-2.67-8.72-3-5.34-.59-9.66,2.11-13.72,5.29-.26.2.1.55.35.35Z" transform="translate(-12.94 -9.19)" fill="#231f20"/>
        <rect x="53.86" y="44.91" width="2.25" height="2.25" fill="#231f20"/>
      </g>
    </g>
  </g>

          </symbol>
          
          <symbol id="doorman" viewBox="0 0 73.74 71.03">
              <title>Symbol: Doorman building</title>
              <g>
    <path d="M48,78.73l-36.47-.1a40.34,40.34,0,0,1,9.5-26c6.69-7.88,16.33-7.28,27-7.28,10.91,0,20.76-.35,27.47,7.88a40.41,40.41,0,0,1,9,25.54Z" transform="translate(-11.13 -8.1)" fill="#fff" stroke="#231f20" stroke-miterlimit="10" stroke-width="0.8"/>
    <polygon points="43.77 45.53 36.93 38.69 50.61 38.69 43.77 45.53" fill="none" stroke="#231f20" stroke-miterlimit="10" stroke-width="0.3"/>
    <g>
      <line x1="51.68" y1="37.2" x2="52.18" y2="70.16" fill="none" stroke="#231f20" stroke-miterlimit="10" stroke-width="0.5"/>
      <g>
        <line x1="22.1" y1="37.2" x2="22.59" y2="70.16" fill="none" stroke="#231f20" stroke-miterlimit="10" stroke-width="0.5"/>
        <polygon points="36.58 53.06 21.72 38.19 51.45 38.19 36.58 53.06" fill="none" stroke="#231f20" stroke-miterlimit="10" stroke-width="0.4"/>
        <polygon points="29.9 45.62 22.91 38.63 36.89 38.63 29.9 45.62" fill="none" stroke="#231f20" stroke-miterlimit="10" stroke-width="0.3"/>
        <g>
          <path d="M48.41,52.65H47a4.29,4.29,0,0,1-2.6-2.09h0a4.29,4.29,0,0,1,2.6-2.1h1.4A4.3,4.3,0,0,1,51,50.56h0C51,51.19,49.06,52.65,48.41,52.65Z" transform="translate(-11.13 -8.1)" fill="none" stroke="#231f20" stroke-miterlimit="10" stroke-width="0.3"/>
          <line x1="35.52" y1="44.56" x2="35.83" y2="52.47" fill="none" stroke="#231f20" stroke-miterlimit="10" stroke-width="0.3"/>
          <line x1="37.83" y1="44.56" x2="37.53" y2="52.47" fill="none" stroke="#231f20" stroke-miterlimit="10" stroke-width="0.3"/>
        </g>
      </g>
    </g>
    <path d="M44.17,35.3c0,5.53-2.81,10-6.28,10" transform="translate(-11.13 -8.1)" fill="none" stroke="#231f20" stroke-miterlimit="10" stroke-width="0.5"/>
    <path d="M51.75,35.3c0,5.53,2.81,10,6.29,10" transform="translate(-11.13 -8.1)" fill="none" stroke="#231f20" stroke-miterlimit="10" stroke-width="0.5"/>
    <circle cx="36.87" cy="13.73" r="13.48" fill="#fff" stroke="#231f20" stroke-miterlimit="10" stroke-width="0.5"/>
  </g>
  
              
          </symbol>
          
          <symbol id="pets" viewBox="0 0 70.67 86.67">
              <title>Symbol: Pets allowed</title>
        <g>
    <circle cx="51.71" cy="67.71" r="18.46" fill="#fff" stroke="#231f20" stroke-miterlimit="10"/>
    <g id="Forma_1" data-name="Forma 1">
      <path d="M45.76,39.37c-9.86-5.94-27.14,1.79-32,9.82-2.4,4,.28,9.85,6.11,13.36a16.76,16.76,0,0,0,5.5,2.07,12.59,12.59,0,0,1,4.23,1.55,12.64,12.64,0,0,1,3.36,3,16.73,16.73,0,0,0,4.41,3.9c5.82,3.5,12.26,3.13,14.66-.86C56.89,64.19,55.63,45.31,45.76,39.37ZM37.37,31c4.6,2.77,11.53-.59,15.77-7.64s4-14.75-.63-17.52S41,6.47,36.74,13.53,32.77,28.28,37.37,31Zm35.45,4.2c4.25-7,4-14.75-.63-17.51s-11.52.59-15.77,7.64-4,14.75.63,17.52S68.58,42.3,72.82,35.24ZM23.66,37.05c3.72.05,7.11-3.82,7.2-9.45S27.79,18,24,17.9s-7,3.87-7.19,9.45S20,37,23.66,37.05ZM63.15,47c-4.94,2.71-6.77,7.52-5,10.78s6.91,4.3,11.77,1.51,6.84-7.45,5-10.79S68.12,44.3,63.15,47Z" transform="translate(-12.91 -4.91)" fill="#010101" fill-rule="evenodd"/>
    </g>
    <g>
      <line x1="41.79" y1="66.73" x2="47.95" y2="74.56" fill="none" stroke="#231f20" stroke-miterlimit="10"/>
      <line x1="48.04" y1="74.44" x2="61.63" y2="60.85" fill="none" stroke="#231f20" stroke-miterlimit="10"/>
    </g>
        </g>
              
          </symbol>

</svg>



